G75*
%MOIN*%
%OFA0B0*%
%FSLAX25Y25*%
%IPPOS*%
%LPD*%
%AMOC8*
5,1,8,0,0,1.08239X$1,22.5*
%
%ADD10C,0.01000*%
%ADD11C,0.00000*%
%ADD12C,0.12611*%
%ADD13C,0.08200*%
%ADD14R,0.08200X0.08200*%
%ADD15C,0.06600*%
%ADD16C,0.01480*%
%ADD17OC8,0.07400*%
%ADD18R,0.05524X0.03950*%
%ADD19R,0.03950X0.05524*%
%ADD20C,0.05200*%
D10*
X0019800Y0016300D02*
X0019800Y0181261D01*
X0236501Y0181261D01*
X0236501Y0016300D01*
X0019800Y0016300D01*
D11*
X0025894Y0028300D02*
X0025896Y0028453D01*
X0025902Y0028607D01*
X0025912Y0028760D01*
X0025926Y0028912D01*
X0025944Y0029065D01*
X0025966Y0029216D01*
X0025991Y0029367D01*
X0026021Y0029518D01*
X0026055Y0029668D01*
X0026092Y0029816D01*
X0026133Y0029964D01*
X0026178Y0030110D01*
X0026227Y0030256D01*
X0026280Y0030400D01*
X0026336Y0030542D01*
X0026396Y0030683D01*
X0026460Y0030823D01*
X0026527Y0030961D01*
X0026598Y0031097D01*
X0026673Y0031231D01*
X0026750Y0031363D01*
X0026832Y0031493D01*
X0026916Y0031621D01*
X0027004Y0031747D01*
X0027095Y0031870D01*
X0027189Y0031991D01*
X0027287Y0032109D01*
X0027387Y0032225D01*
X0027491Y0032338D01*
X0027597Y0032449D01*
X0027706Y0032557D01*
X0027818Y0032662D01*
X0027932Y0032763D01*
X0028050Y0032862D01*
X0028169Y0032958D01*
X0028291Y0033051D01*
X0028416Y0033140D01*
X0028543Y0033227D01*
X0028672Y0033309D01*
X0028803Y0033389D01*
X0028936Y0033465D01*
X0029071Y0033538D01*
X0029208Y0033607D01*
X0029347Y0033672D01*
X0029487Y0033734D01*
X0029629Y0033792D01*
X0029772Y0033847D01*
X0029917Y0033898D01*
X0030063Y0033945D01*
X0030210Y0033988D01*
X0030358Y0034027D01*
X0030507Y0034063D01*
X0030657Y0034094D01*
X0030808Y0034122D01*
X0030959Y0034146D01*
X0031112Y0034166D01*
X0031264Y0034182D01*
X0031417Y0034194D01*
X0031570Y0034202D01*
X0031723Y0034206D01*
X0031877Y0034206D01*
X0032030Y0034202D01*
X0032183Y0034194D01*
X0032336Y0034182D01*
X0032488Y0034166D01*
X0032641Y0034146D01*
X0032792Y0034122D01*
X0032943Y0034094D01*
X0033093Y0034063D01*
X0033242Y0034027D01*
X0033390Y0033988D01*
X0033537Y0033945D01*
X0033683Y0033898D01*
X0033828Y0033847D01*
X0033971Y0033792D01*
X0034113Y0033734D01*
X0034253Y0033672D01*
X0034392Y0033607D01*
X0034529Y0033538D01*
X0034664Y0033465D01*
X0034797Y0033389D01*
X0034928Y0033309D01*
X0035057Y0033227D01*
X0035184Y0033140D01*
X0035309Y0033051D01*
X0035431Y0032958D01*
X0035550Y0032862D01*
X0035668Y0032763D01*
X0035782Y0032662D01*
X0035894Y0032557D01*
X0036003Y0032449D01*
X0036109Y0032338D01*
X0036213Y0032225D01*
X0036313Y0032109D01*
X0036411Y0031991D01*
X0036505Y0031870D01*
X0036596Y0031747D01*
X0036684Y0031621D01*
X0036768Y0031493D01*
X0036850Y0031363D01*
X0036927Y0031231D01*
X0037002Y0031097D01*
X0037073Y0030961D01*
X0037140Y0030823D01*
X0037204Y0030683D01*
X0037264Y0030542D01*
X0037320Y0030400D01*
X0037373Y0030256D01*
X0037422Y0030110D01*
X0037467Y0029964D01*
X0037508Y0029816D01*
X0037545Y0029668D01*
X0037579Y0029518D01*
X0037609Y0029367D01*
X0037634Y0029216D01*
X0037656Y0029065D01*
X0037674Y0028912D01*
X0037688Y0028760D01*
X0037698Y0028607D01*
X0037704Y0028453D01*
X0037706Y0028300D01*
X0037704Y0028147D01*
X0037698Y0027993D01*
X0037688Y0027840D01*
X0037674Y0027688D01*
X0037656Y0027535D01*
X0037634Y0027384D01*
X0037609Y0027233D01*
X0037579Y0027082D01*
X0037545Y0026932D01*
X0037508Y0026784D01*
X0037467Y0026636D01*
X0037422Y0026490D01*
X0037373Y0026344D01*
X0037320Y0026200D01*
X0037264Y0026058D01*
X0037204Y0025917D01*
X0037140Y0025777D01*
X0037073Y0025639D01*
X0037002Y0025503D01*
X0036927Y0025369D01*
X0036850Y0025237D01*
X0036768Y0025107D01*
X0036684Y0024979D01*
X0036596Y0024853D01*
X0036505Y0024730D01*
X0036411Y0024609D01*
X0036313Y0024491D01*
X0036213Y0024375D01*
X0036109Y0024262D01*
X0036003Y0024151D01*
X0035894Y0024043D01*
X0035782Y0023938D01*
X0035668Y0023837D01*
X0035550Y0023738D01*
X0035431Y0023642D01*
X0035309Y0023549D01*
X0035184Y0023460D01*
X0035057Y0023373D01*
X0034928Y0023291D01*
X0034797Y0023211D01*
X0034664Y0023135D01*
X0034529Y0023062D01*
X0034392Y0022993D01*
X0034253Y0022928D01*
X0034113Y0022866D01*
X0033971Y0022808D01*
X0033828Y0022753D01*
X0033683Y0022702D01*
X0033537Y0022655D01*
X0033390Y0022612D01*
X0033242Y0022573D01*
X0033093Y0022537D01*
X0032943Y0022506D01*
X0032792Y0022478D01*
X0032641Y0022454D01*
X0032488Y0022434D01*
X0032336Y0022418D01*
X0032183Y0022406D01*
X0032030Y0022398D01*
X0031877Y0022394D01*
X0031723Y0022394D01*
X0031570Y0022398D01*
X0031417Y0022406D01*
X0031264Y0022418D01*
X0031112Y0022434D01*
X0030959Y0022454D01*
X0030808Y0022478D01*
X0030657Y0022506D01*
X0030507Y0022537D01*
X0030358Y0022573D01*
X0030210Y0022612D01*
X0030063Y0022655D01*
X0029917Y0022702D01*
X0029772Y0022753D01*
X0029629Y0022808D01*
X0029487Y0022866D01*
X0029347Y0022928D01*
X0029208Y0022993D01*
X0029071Y0023062D01*
X0028936Y0023135D01*
X0028803Y0023211D01*
X0028672Y0023291D01*
X0028543Y0023373D01*
X0028416Y0023460D01*
X0028291Y0023549D01*
X0028169Y0023642D01*
X0028050Y0023738D01*
X0027932Y0023837D01*
X0027818Y0023938D01*
X0027706Y0024043D01*
X0027597Y0024151D01*
X0027491Y0024262D01*
X0027387Y0024375D01*
X0027287Y0024491D01*
X0027189Y0024609D01*
X0027095Y0024730D01*
X0027004Y0024853D01*
X0026916Y0024979D01*
X0026832Y0025107D01*
X0026750Y0025237D01*
X0026673Y0025369D01*
X0026598Y0025503D01*
X0026527Y0025639D01*
X0026460Y0025777D01*
X0026396Y0025917D01*
X0026336Y0026058D01*
X0026280Y0026200D01*
X0026227Y0026344D01*
X0026178Y0026490D01*
X0026133Y0026636D01*
X0026092Y0026784D01*
X0026055Y0026932D01*
X0026021Y0027082D01*
X0025991Y0027233D01*
X0025966Y0027384D01*
X0025944Y0027535D01*
X0025926Y0027688D01*
X0025912Y0027840D01*
X0025902Y0027993D01*
X0025896Y0028147D01*
X0025894Y0028300D01*
X0025894Y0169800D02*
X0025896Y0169953D01*
X0025902Y0170107D01*
X0025912Y0170260D01*
X0025926Y0170412D01*
X0025944Y0170565D01*
X0025966Y0170716D01*
X0025991Y0170867D01*
X0026021Y0171018D01*
X0026055Y0171168D01*
X0026092Y0171316D01*
X0026133Y0171464D01*
X0026178Y0171610D01*
X0026227Y0171756D01*
X0026280Y0171900D01*
X0026336Y0172042D01*
X0026396Y0172183D01*
X0026460Y0172323D01*
X0026527Y0172461D01*
X0026598Y0172597D01*
X0026673Y0172731D01*
X0026750Y0172863D01*
X0026832Y0172993D01*
X0026916Y0173121D01*
X0027004Y0173247D01*
X0027095Y0173370D01*
X0027189Y0173491D01*
X0027287Y0173609D01*
X0027387Y0173725D01*
X0027491Y0173838D01*
X0027597Y0173949D01*
X0027706Y0174057D01*
X0027818Y0174162D01*
X0027932Y0174263D01*
X0028050Y0174362D01*
X0028169Y0174458D01*
X0028291Y0174551D01*
X0028416Y0174640D01*
X0028543Y0174727D01*
X0028672Y0174809D01*
X0028803Y0174889D01*
X0028936Y0174965D01*
X0029071Y0175038D01*
X0029208Y0175107D01*
X0029347Y0175172D01*
X0029487Y0175234D01*
X0029629Y0175292D01*
X0029772Y0175347D01*
X0029917Y0175398D01*
X0030063Y0175445D01*
X0030210Y0175488D01*
X0030358Y0175527D01*
X0030507Y0175563D01*
X0030657Y0175594D01*
X0030808Y0175622D01*
X0030959Y0175646D01*
X0031112Y0175666D01*
X0031264Y0175682D01*
X0031417Y0175694D01*
X0031570Y0175702D01*
X0031723Y0175706D01*
X0031877Y0175706D01*
X0032030Y0175702D01*
X0032183Y0175694D01*
X0032336Y0175682D01*
X0032488Y0175666D01*
X0032641Y0175646D01*
X0032792Y0175622D01*
X0032943Y0175594D01*
X0033093Y0175563D01*
X0033242Y0175527D01*
X0033390Y0175488D01*
X0033537Y0175445D01*
X0033683Y0175398D01*
X0033828Y0175347D01*
X0033971Y0175292D01*
X0034113Y0175234D01*
X0034253Y0175172D01*
X0034392Y0175107D01*
X0034529Y0175038D01*
X0034664Y0174965D01*
X0034797Y0174889D01*
X0034928Y0174809D01*
X0035057Y0174727D01*
X0035184Y0174640D01*
X0035309Y0174551D01*
X0035431Y0174458D01*
X0035550Y0174362D01*
X0035668Y0174263D01*
X0035782Y0174162D01*
X0035894Y0174057D01*
X0036003Y0173949D01*
X0036109Y0173838D01*
X0036213Y0173725D01*
X0036313Y0173609D01*
X0036411Y0173491D01*
X0036505Y0173370D01*
X0036596Y0173247D01*
X0036684Y0173121D01*
X0036768Y0172993D01*
X0036850Y0172863D01*
X0036927Y0172731D01*
X0037002Y0172597D01*
X0037073Y0172461D01*
X0037140Y0172323D01*
X0037204Y0172183D01*
X0037264Y0172042D01*
X0037320Y0171900D01*
X0037373Y0171756D01*
X0037422Y0171610D01*
X0037467Y0171464D01*
X0037508Y0171316D01*
X0037545Y0171168D01*
X0037579Y0171018D01*
X0037609Y0170867D01*
X0037634Y0170716D01*
X0037656Y0170565D01*
X0037674Y0170412D01*
X0037688Y0170260D01*
X0037698Y0170107D01*
X0037704Y0169953D01*
X0037706Y0169800D01*
X0037704Y0169647D01*
X0037698Y0169493D01*
X0037688Y0169340D01*
X0037674Y0169188D01*
X0037656Y0169035D01*
X0037634Y0168884D01*
X0037609Y0168733D01*
X0037579Y0168582D01*
X0037545Y0168432D01*
X0037508Y0168284D01*
X0037467Y0168136D01*
X0037422Y0167990D01*
X0037373Y0167844D01*
X0037320Y0167700D01*
X0037264Y0167558D01*
X0037204Y0167417D01*
X0037140Y0167277D01*
X0037073Y0167139D01*
X0037002Y0167003D01*
X0036927Y0166869D01*
X0036850Y0166737D01*
X0036768Y0166607D01*
X0036684Y0166479D01*
X0036596Y0166353D01*
X0036505Y0166230D01*
X0036411Y0166109D01*
X0036313Y0165991D01*
X0036213Y0165875D01*
X0036109Y0165762D01*
X0036003Y0165651D01*
X0035894Y0165543D01*
X0035782Y0165438D01*
X0035668Y0165337D01*
X0035550Y0165238D01*
X0035431Y0165142D01*
X0035309Y0165049D01*
X0035184Y0164960D01*
X0035057Y0164873D01*
X0034928Y0164791D01*
X0034797Y0164711D01*
X0034664Y0164635D01*
X0034529Y0164562D01*
X0034392Y0164493D01*
X0034253Y0164428D01*
X0034113Y0164366D01*
X0033971Y0164308D01*
X0033828Y0164253D01*
X0033683Y0164202D01*
X0033537Y0164155D01*
X0033390Y0164112D01*
X0033242Y0164073D01*
X0033093Y0164037D01*
X0032943Y0164006D01*
X0032792Y0163978D01*
X0032641Y0163954D01*
X0032488Y0163934D01*
X0032336Y0163918D01*
X0032183Y0163906D01*
X0032030Y0163898D01*
X0031877Y0163894D01*
X0031723Y0163894D01*
X0031570Y0163898D01*
X0031417Y0163906D01*
X0031264Y0163918D01*
X0031112Y0163934D01*
X0030959Y0163954D01*
X0030808Y0163978D01*
X0030657Y0164006D01*
X0030507Y0164037D01*
X0030358Y0164073D01*
X0030210Y0164112D01*
X0030063Y0164155D01*
X0029917Y0164202D01*
X0029772Y0164253D01*
X0029629Y0164308D01*
X0029487Y0164366D01*
X0029347Y0164428D01*
X0029208Y0164493D01*
X0029071Y0164562D01*
X0028936Y0164635D01*
X0028803Y0164711D01*
X0028672Y0164791D01*
X0028543Y0164873D01*
X0028416Y0164960D01*
X0028291Y0165049D01*
X0028169Y0165142D01*
X0028050Y0165238D01*
X0027932Y0165337D01*
X0027818Y0165438D01*
X0027706Y0165543D01*
X0027597Y0165651D01*
X0027491Y0165762D01*
X0027387Y0165875D01*
X0027287Y0165991D01*
X0027189Y0166109D01*
X0027095Y0166230D01*
X0027004Y0166353D01*
X0026916Y0166479D01*
X0026832Y0166607D01*
X0026750Y0166737D01*
X0026673Y0166869D01*
X0026598Y0167003D01*
X0026527Y0167139D01*
X0026460Y0167277D01*
X0026396Y0167417D01*
X0026336Y0167558D01*
X0026280Y0167700D01*
X0026227Y0167844D01*
X0026178Y0167990D01*
X0026133Y0168136D01*
X0026092Y0168284D01*
X0026055Y0168432D01*
X0026021Y0168582D01*
X0025991Y0168733D01*
X0025966Y0168884D01*
X0025944Y0169035D01*
X0025926Y0169188D01*
X0025912Y0169340D01*
X0025902Y0169493D01*
X0025896Y0169647D01*
X0025894Y0169800D01*
X0217394Y0169800D02*
X0217396Y0169953D01*
X0217402Y0170107D01*
X0217412Y0170260D01*
X0217426Y0170412D01*
X0217444Y0170565D01*
X0217466Y0170716D01*
X0217491Y0170867D01*
X0217521Y0171018D01*
X0217555Y0171168D01*
X0217592Y0171316D01*
X0217633Y0171464D01*
X0217678Y0171610D01*
X0217727Y0171756D01*
X0217780Y0171900D01*
X0217836Y0172042D01*
X0217896Y0172183D01*
X0217960Y0172323D01*
X0218027Y0172461D01*
X0218098Y0172597D01*
X0218173Y0172731D01*
X0218250Y0172863D01*
X0218332Y0172993D01*
X0218416Y0173121D01*
X0218504Y0173247D01*
X0218595Y0173370D01*
X0218689Y0173491D01*
X0218787Y0173609D01*
X0218887Y0173725D01*
X0218991Y0173838D01*
X0219097Y0173949D01*
X0219206Y0174057D01*
X0219318Y0174162D01*
X0219432Y0174263D01*
X0219550Y0174362D01*
X0219669Y0174458D01*
X0219791Y0174551D01*
X0219916Y0174640D01*
X0220043Y0174727D01*
X0220172Y0174809D01*
X0220303Y0174889D01*
X0220436Y0174965D01*
X0220571Y0175038D01*
X0220708Y0175107D01*
X0220847Y0175172D01*
X0220987Y0175234D01*
X0221129Y0175292D01*
X0221272Y0175347D01*
X0221417Y0175398D01*
X0221563Y0175445D01*
X0221710Y0175488D01*
X0221858Y0175527D01*
X0222007Y0175563D01*
X0222157Y0175594D01*
X0222308Y0175622D01*
X0222459Y0175646D01*
X0222612Y0175666D01*
X0222764Y0175682D01*
X0222917Y0175694D01*
X0223070Y0175702D01*
X0223223Y0175706D01*
X0223377Y0175706D01*
X0223530Y0175702D01*
X0223683Y0175694D01*
X0223836Y0175682D01*
X0223988Y0175666D01*
X0224141Y0175646D01*
X0224292Y0175622D01*
X0224443Y0175594D01*
X0224593Y0175563D01*
X0224742Y0175527D01*
X0224890Y0175488D01*
X0225037Y0175445D01*
X0225183Y0175398D01*
X0225328Y0175347D01*
X0225471Y0175292D01*
X0225613Y0175234D01*
X0225753Y0175172D01*
X0225892Y0175107D01*
X0226029Y0175038D01*
X0226164Y0174965D01*
X0226297Y0174889D01*
X0226428Y0174809D01*
X0226557Y0174727D01*
X0226684Y0174640D01*
X0226809Y0174551D01*
X0226931Y0174458D01*
X0227050Y0174362D01*
X0227168Y0174263D01*
X0227282Y0174162D01*
X0227394Y0174057D01*
X0227503Y0173949D01*
X0227609Y0173838D01*
X0227713Y0173725D01*
X0227813Y0173609D01*
X0227911Y0173491D01*
X0228005Y0173370D01*
X0228096Y0173247D01*
X0228184Y0173121D01*
X0228268Y0172993D01*
X0228350Y0172863D01*
X0228427Y0172731D01*
X0228502Y0172597D01*
X0228573Y0172461D01*
X0228640Y0172323D01*
X0228704Y0172183D01*
X0228764Y0172042D01*
X0228820Y0171900D01*
X0228873Y0171756D01*
X0228922Y0171610D01*
X0228967Y0171464D01*
X0229008Y0171316D01*
X0229045Y0171168D01*
X0229079Y0171018D01*
X0229109Y0170867D01*
X0229134Y0170716D01*
X0229156Y0170565D01*
X0229174Y0170412D01*
X0229188Y0170260D01*
X0229198Y0170107D01*
X0229204Y0169953D01*
X0229206Y0169800D01*
X0229204Y0169647D01*
X0229198Y0169493D01*
X0229188Y0169340D01*
X0229174Y0169188D01*
X0229156Y0169035D01*
X0229134Y0168884D01*
X0229109Y0168733D01*
X0229079Y0168582D01*
X0229045Y0168432D01*
X0229008Y0168284D01*
X0228967Y0168136D01*
X0228922Y0167990D01*
X0228873Y0167844D01*
X0228820Y0167700D01*
X0228764Y0167558D01*
X0228704Y0167417D01*
X0228640Y0167277D01*
X0228573Y0167139D01*
X0228502Y0167003D01*
X0228427Y0166869D01*
X0228350Y0166737D01*
X0228268Y0166607D01*
X0228184Y0166479D01*
X0228096Y0166353D01*
X0228005Y0166230D01*
X0227911Y0166109D01*
X0227813Y0165991D01*
X0227713Y0165875D01*
X0227609Y0165762D01*
X0227503Y0165651D01*
X0227394Y0165543D01*
X0227282Y0165438D01*
X0227168Y0165337D01*
X0227050Y0165238D01*
X0226931Y0165142D01*
X0226809Y0165049D01*
X0226684Y0164960D01*
X0226557Y0164873D01*
X0226428Y0164791D01*
X0226297Y0164711D01*
X0226164Y0164635D01*
X0226029Y0164562D01*
X0225892Y0164493D01*
X0225753Y0164428D01*
X0225613Y0164366D01*
X0225471Y0164308D01*
X0225328Y0164253D01*
X0225183Y0164202D01*
X0225037Y0164155D01*
X0224890Y0164112D01*
X0224742Y0164073D01*
X0224593Y0164037D01*
X0224443Y0164006D01*
X0224292Y0163978D01*
X0224141Y0163954D01*
X0223988Y0163934D01*
X0223836Y0163918D01*
X0223683Y0163906D01*
X0223530Y0163898D01*
X0223377Y0163894D01*
X0223223Y0163894D01*
X0223070Y0163898D01*
X0222917Y0163906D01*
X0222764Y0163918D01*
X0222612Y0163934D01*
X0222459Y0163954D01*
X0222308Y0163978D01*
X0222157Y0164006D01*
X0222007Y0164037D01*
X0221858Y0164073D01*
X0221710Y0164112D01*
X0221563Y0164155D01*
X0221417Y0164202D01*
X0221272Y0164253D01*
X0221129Y0164308D01*
X0220987Y0164366D01*
X0220847Y0164428D01*
X0220708Y0164493D01*
X0220571Y0164562D01*
X0220436Y0164635D01*
X0220303Y0164711D01*
X0220172Y0164791D01*
X0220043Y0164873D01*
X0219916Y0164960D01*
X0219791Y0165049D01*
X0219669Y0165142D01*
X0219550Y0165238D01*
X0219432Y0165337D01*
X0219318Y0165438D01*
X0219206Y0165543D01*
X0219097Y0165651D01*
X0218991Y0165762D01*
X0218887Y0165875D01*
X0218787Y0165991D01*
X0218689Y0166109D01*
X0218595Y0166230D01*
X0218504Y0166353D01*
X0218416Y0166479D01*
X0218332Y0166607D01*
X0218250Y0166737D01*
X0218173Y0166869D01*
X0218098Y0167003D01*
X0218027Y0167139D01*
X0217960Y0167277D01*
X0217896Y0167417D01*
X0217836Y0167558D01*
X0217780Y0167700D01*
X0217727Y0167844D01*
X0217678Y0167990D01*
X0217633Y0168136D01*
X0217592Y0168284D01*
X0217555Y0168432D01*
X0217521Y0168582D01*
X0217491Y0168733D01*
X0217466Y0168884D01*
X0217444Y0169035D01*
X0217426Y0169188D01*
X0217412Y0169340D01*
X0217402Y0169493D01*
X0217396Y0169647D01*
X0217394Y0169800D01*
X0217394Y0028300D02*
X0217396Y0028453D01*
X0217402Y0028607D01*
X0217412Y0028760D01*
X0217426Y0028912D01*
X0217444Y0029065D01*
X0217466Y0029216D01*
X0217491Y0029367D01*
X0217521Y0029518D01*
X0217555Y0029668D01*
X0217592Y0029816D01*
X0217633Y0029964D01*
X0217678Y0030110D01*
X0217727Y0030256D01*
X0217780Y0030400D01*
X0217836Y0030542D01*
X0217896Y0030683D01*
X0217960Y0030823D01*
X0218027Y0030961D01*
X0218098Y0031097D01*
X0218173Y0031231D01*
X0218250Y0031363D01*
X0218332Y0031493D01*
X0218416Y0031621D01*
X0218504Y0031747D01*
X0218595Y0031870D01*
X0218689Y0031991D01*
X0218787Y0032109D01*
X0218887Y0032225D01*
X0218991Y0032338D01*
X0219097Y0032449D01*
X0219206Y0032557D01*
X0219318Y0032662D01*
X0219432Y0032763D01*
X0219550Y0032862D01*
X0219669Y0032958D01*
X0219791Y0033051D01*
X0219916Y0033140D01*
X0220043Y0033227D01*
X0220172Y0033309D01*
X0220303Y0033389D01*
X0220436Y0033465D01*
X0220571Y0033538D01*
X0220708Y0033607D01*
X0220847Y0033672D01*
X0220987Y0033734D01*
X0221129Y0033792D01*
X0221272Y0033847D01*
X0221417Y0033898D01*
X0221563Y0033945D01*
X0221710Y0033988D01*
X0221858Y0034027D01*
X0222007Y0034063D01*
X0222157Y0034094D01*
X0222308Y0034122D01*
X0222459Y0034146D01*
X0222612Y0034166D01*
X0222764Y0034182D01*
X0222917Y0034194D01*
X0223070Y0034202D01*
X0223223Y0034206D01*
X0223377Y0034206D01*
X0223530Y0034202D01*
X0223683Y0034194D01*
X0223836Y0034182D01*
X0223988Y0034166D01*
X0224141Y0034146D01*
X0224292Y0034122D01*
X0224443Y0034094D01*
X0224593Y0034063D01*
X0224742Y0034027D01*
X0224890Y0033988D01*
X0225037Y0033945D01*
X0225183Y0033898D01*
X0225328Y0033847D01*
X0225471Y0033792D01*
X0225613Y0033734D01*
X0225753Y0033672D01*
X0225892Y0033607D01*
X0226029Y0033538D01*
X0226164Y0033465D01*
X0226297Y0033389D01*
X0226428Y0033309D01*
X0226557Y0033227D01*
X0226684Y0033140D01*
X0226809Y0033051D01*
X0226931Y0032958D01*
X0227050Y0032862D01*
X0227168Y0032763D01*
X0227282Y0032662D01*
X0227394Y0032557D01*
X0227503Y0032449D01*
X0227609Y0032338D01*
X0227713Y0032225D01*
X0227813Y0032109D01*
X0227911Y0031991D01*
X0228005Y0031870D01*
X0228096Y0031747D01*
X0228184Y0031621D01*
X0228268Y0031493D01*
X0228350Y0031363D01*
X0228427Y0031231D01*
X0228502Y0031097D01*
X0228573Y0030961D01*
X0228640Y0030823D01*
X0228704Y0030683D01*
X0228764Y0030542D01*
X0228820Y0030400D01*
X0228873Y0030256D01*
X0228922Y0030110D01*
X0228967Y0029964D01*
X0229008Y0029816D01*
X0229045Y0029668D01*
X0229079Y0029518D01*
X0229109Y0029367D01*
X0229134Y0029216D01*
X0229156Y0029065D01*
X0229174Y0028912D01*
X0229188Y0028760D01*
X0229198Y0028607D01*
X0229204Y0028453D01*
X0229206Y0028300D01*
X0229204Y0028147D01*
X0229198Y0027993D01*
X0229188Y0027840D01*
X0229174Y0027688D01*
X0229156Y0027535D01*
X0229134Y0027384D01*
X0229109Y0027233D01*
X0229079Y0027082D01*
X0229045Y0026932D01*
X0229008Y0026784D01*
X0228967Y0026636D01*
X0228922Y0026490D01*
X0228873Y0026344D01*
X0228820Y0026200D01*
X0228764Y0026058D01*
X0228704Y0025917D01*
X0228640Y0025777D01*
X0228573Y0025639D01*
X0228502Y0025503D01*
X0228427Y0025369D01*
X0228350Y0025237D01*
X0228268Y0025107D01*
X0228184Y0024979D01*
X0228096Y0024853D01*
X0228005Y0024730D01*
X0227911Y0024609D01*
X0227813Y0024491D01*
X0227713Y0024375D01*
X0227609Y0024262D01*
X0227503Y0024151D01*
X0227394Y0024043D01*
X0227282Y0023938D01*
X0227168Y0023837D01*
X0227050Y0023738D01*
X0226931Y0023642D01*
X0226809Y0023549D01*
X0226684Y0023460D01*
X0226557Y0023373D01*
X0226428Y0023291D01*
X0226297Y0023211D01*
X0226164Y0023135D01*
X0226029Y0023062D01*
X0225892Y0022993D01*
X0225753Y0022928D01*
X0225613Y0022866D01*
X0225471Y0022808D01*
X0225328Y0022753D01*
X0225183Y0022702D01*
X0225037Y0022655D01*
X0224890Y0022612D01*
X0224742Y0022573D01*
X0224593Y0022537D01*
X0224443Y0022506D01*
X0224292Y0022478D01*
X0224141Y0022454D01*
X0223988Y0022434D01*
X0223836Y0022418D01*
X0223683Y0022406D01*
X0223530Y0022398D01*
X0223377Y0022394D01*
X0223223Y0022394D01*
X0223070Y0022398D01*
X0222917Y0022406D01*
X0222764Y0022418D01*
X0222612Y0022434D01*
X0222459Y0022454D01*
X0222308Y0022478D01*
X0222157Y0022506D01*
X0222007Y0022537D01*
X0221858Y0022573D01*
X0221710Y0022612D01*
X0221563Y0022655D01*
X0221417Y0022702D01*
X0221272Y0022753D01*
X0221129Y0022808D01*
X0220987Y0022866D01*
X0220847Y0022928D01*
X0220708Y0022993D01*
X0220571Y0023062D01*
X0220436Y0023135D01*
X0220303Y0023211D01*
X0220172Y0023291D01*
X0220043Y0023373D01*
X0219916Y0023460D01*
X0219791Y0023549D01*
X0219669Y0023642D01*
X0219550Y0023738D01*
X0219432Y0023837D01*
X0219318Y0023938D01*
X0219206Y0024043D01*
X0219097Y0024151D01*
X0218991Y0024262D01*
X0218887Y0024375D01*
X0218787Y0024491D01*
X0218689Y0024609D01*
X0218595Y0024730D01*
X0218504Y0024853D01*
X0218416Y0024979D01*
X0218332Y0025107D01*
X0218250Y0025237D01*
X0218173Y0025369D01*
X0218098Y0025503D01*
X0218027Y0025639D01*
X0217960Y0025777D01*
X0217896Y0025917D01*
X0217836Y0026058D01*
X0217780Y0026200D01*
X0217727Y0026344D01*
X0217678Y0026490D01*
X0217633Y0026636D01*
X0217592Y0026784D01*
X0217555Y0026932D01*
X0217521Y0027082D01*
X0217491Y0027233D01*
X0217466Y0027384D01*
X0217444Y0027535D01*
X0217426Y0027688D01*
X0217412Y0027840D01*
X0217402Y0027993D01*
X0217396Y0028147D01*
X0217394Y0028300D01*
D12*
X0223300Y0028300D03*
X0031800Y0028300D03*
X0031800Y0169800D03*
X0223300Y0169800D03*
D13*
X0125800Y0149800D03*
X0115800Y0150800D03*
X0105800Y0149800D03*
X0095800Y0150800D03*
X0085800Y0149800D03*
X0075800Y0150800D03*
X0065800Y0149800D03*
X0069300Y0169300D03*
X0059300Y0169300D03*
X0049300Y0169300D03*
X0079300Y0169300D03*
X0089300Y0169300D03*
X0099300Y0169300D03*
X0109300Y0169300D03*
X0115800Y0060800D03*
X0105800Y0059800D03*
X0095800Y0060800D03*
X0085800Y0059800D03*
X0075800Y0060800D03*
X0065800Y0059800D03*
X0101800Y0031800D03*
X0111800Y0031800D03*
X0121800Y0031800D03*
X0125800Y0059800D03*
D14*
X0131800Y0031800D03*
X0055800Y0060800D03*
X0055800Y0150800D03*
D15*
X0168900Y0134300D02*
X0174700Y0134300D01*
X0174700Y0124300D02*
X0168900Y0124300D01*
X0168900Y0114300D02*
X0174700Y0114300D01*
X0174700Y0104300D02*
X0168900Y0104300D01*
X0168900Y0094300D02*
X0174700Y0094300D01*
X0174700Y0084300D02*
X0168900Y0084300D01*
X0168900Y0074300D02*
X0174700Y0074300D01*
X0174700Y0064300D02*
X0168900Y0064300D01*
X0168900Y0054300D02*
X0174700Y0054300D01*
X0198900Y0054300D02*
X0204700Y0054300D01*
X0204700Y0064300D02*
X0198900Y0064300D01*
X0198900Y0074300D02*
X0204700Y0074300D01*
X0204700Y0084300D02*
X0198900Y0084300D01*
X0198900Y0094300D02*
X0204700Y0094300D01*
X0204700Y0104300D02*
X0198900Y0104300D01*
X0198900Y0114300D02*
X0204700Y0114300D01*
X0204700Y0124300D02*
X0198900Y0124300D01*
X0198900Y0134300D02*
X0204700Y0134300D01*
X0055305Y0042638D02*
X0049505Y0042638D01*
X0049505Y0032795D02*
X0055305Y0032795D01*
X0055305Y0022953D02*
X0049505Y0022953D01*
D16*
X0158750Y0033117D02*
X0159490Y0032377D01*
X0157038Y0032377D01*
X0155305Y0034110D01*
X0155305Y0036562D01*
X0157038Y0038295D01*
X0159490Y0038295D01*
X0161223Y0036562D01*
X0161223Y0034110D01*
X0159490Y0032377D01*
X0159030Y0033487D01*
X0157498Y0033487D01*
X0156415Y0034570D01*
X0156415Y0036102D01*
X0157498Y0037185D01*
X0159030Y0037185D01*
X0160113Y0036102D01*
X0160113Y0034570D01*
X0159030Y0033487D01*
X0158570Y0034597D01*
X0157958Y0034597D01*
X0157525Y0035030D01*
X0157525Y0035642D01*
X0157958Y0036075D01*
X0158570Y0036075D01*
X0159003Y0035642D01*
X0159003Y0035030D01*
X0158570Y0034597D01*
X0165822Y0026045D02*
X0166562Y0025305D01*
X0164110Y0025305D01*
X0162377Y0027038D01*
X0162377Y0029490D01*
X0164110Y0031223D01*
X0166562Y0031223D01*
X0168295Y0029490D01*
X0168295Y0027038D01*
X0166562Y0025305D01*
X0166102Y0026415D01*
X0164570Y0026415D01*
X0163487Y0027498D01*
X0163487Y0029030D01*
X0164570Y0030113D01*
X0166102Y0030113D01*
X0167185Y0029030D01*
X0167185Y0027498D01*
X0166102Y0026415D01*
X0165642Y0027525D01*
X0165030Y0027525D01*
X0164597Y0027958D01*
X0164597Y0028570D01*
X0165030Y0029003D01*
X0165642Y0029003D01*
X0166075Y0028570D01*
X0166075Y0027958D01*
X0165642Y0027525D01*
X0222983Y0046250D02*
X0223723Y0046990D01*
X0223723Y0044538D01*
X0221990Y0042805D01*
X0219538Y0042805D01*
X0217805Y0044538D01*
X0217805Y0046990D01*
X0219538Y0048723D01*
X0221990Y0048723D01*
X0223723Y0046990D01*
X0222613Y0046530D01*
X0222613Y0044998D01*
X0221530Y0043915D01*
X0219998Y0043915D01*
X0218915Y0044998D01*
X0218915Y0046530D01*
X0219998Y0047613D01*
X0221530Y0047613D01*
X0222613Y0046530D01*
X0221503Y0046070D01*
X0221503Y0045458D01*
X0221070Y0045025D01*
X0220458Y0045025D01*
X0220025Y0045458D01*
X0220025Y0046070D01*
X0220458Y0046503D01*
X0221070Y0046503D01*
X0221503Y0046070D01*
X0230055Y0053322D02*
X0230795Y0054062D01*
X0230795Y0051610D01*
X0229062Y0049877D01*
X0226610Y0049877D01*
X0224877Y0051610D01*
X0224877Y0054062D01*
X0226610Y0055795D01*
X0229062Y0055795D01*
X0230795Y0054062D01*
X0229685Y0053602D01*
X0229685Y0052070D01*
X0228602Y0050987D01*
X0227070Y0050987D01*
X0225987Y0052070D01*
X0225987Y0053602D01*
X0227070Y0054685D01*
X0228602Y0054685D01*
X0229685Y0053602D01*
X0228575Y0053142D01*
X0228575Y0052530D01*
X0228142Y0052097D01*
X0227530Y0052097D01*
X0227097Y0052530D01*
X0227097Y0053142D01*
X0227530Y0053575D01*
X0228142Y0053575D01*
X0228575Y0053142D01*
X0228322Y0141045D02*
X0229062Y0140305D01*
X0226610Y0140305D01*
X0224877Y0142038D01*
X0224877Y0144490D01*
X0226610Y0146223D01*
X0229062Y0146223D01*
X0230795Y0144490D01*
X0230795Y0142038D01*
X0229062Y0140305D01*
X0228602Y0141415D01*
X0227070Y0141415D01*
X0225987Y0142498D01*
X0225987Y0144030D01*
X0227070Y0145113D01*
X0228602Y0145113D01*
X0229685Y0144030D01*
X0229685Y0142498D01*
X0228602Y0141415D01*
X0228142Y0142525D01*
X0227530Y0142525D01*
X0227097Y0142958D01*
X0227097Y0143570D01*
X0227530Y0144003D01*
X0228142Y0144003D01*
X0228575Y0143570D01*
X0228575Y0142958D01*
X0228142Y0142525D01*
X0221250Y0148117D02*
X0221990Y0147377D01*
X0219538Y0147377D01*
X0217805Y0149110D01*
X0217805Y0151562D01*
X0219538Y0153295D01*
X0221990Y0153295D01*
X0223723Y0151562D01*
X0223723Y0149110D01*
X0221990Y0147377D01*
X0221530Y0148487D01*
X0219998Y0148487D01*
X0218915Y0149570D01*
X0218915Y0151102D01*
X0219998Y0152185D01*
X0221530Y0152185D01*
X0222613Y0151102D01*
X0222613Y0149570D01*
X0221530Y0148487D01*
X0221070Y0149597D01*
X0220458Y0149597D01*
X0220025Y0150030D01*
X0220025Y0150642D01*
X0220458Y0151075D01*
X0221070Y0151075D01*
X0221503Y0150642D01*
X0221503Y0150030D01*
X0221070Y0149597D01*
X0167555Y0170822D02*
X0168295Y0171562D01*
X0168295Y0169110D01*
X0166562Y0167377D01*
X0164110Y0167377D01*
X0162377Y0169110D01*
X0162377Y0171562D01*
X0164110Y0173295D01*
X0166562Y0173295D01*
X0168295Y0171562D01*
X0167185Y0171102D01*
X0167185Y0169570D01*
X0166102Y0168487D01*
X0164570Y0168487D01*
X0163487Y0169570D01*
X0163487Y0171102D01*
X0164570Y0172185D01*
X0166102Y0172185D01*
X0167185Y0171102D01*
X0166075Y0170642D01*
X0166075Y0170030D01*
X0165642Y0169597D01*
X0165030Y0169597D01*
X0164597Y0170030D01*
X0164597Y0170642D01*
X0165030Y0171075D01*
X0165642Y0171075D01*
X0166075Y0170642D01*
X0160483Y0163750D02*
X0161223Y0164490D01*
X0161223Y0162038D01*
X0159490Y0160305D01*
X0157038Y0160305D01*
X0155305Y0162038D01*
X0155305Y0164490D01*
X0157038Y0166223D01*
X0159490Y0166223D01*
X0161223Y0164490D01*
X0160113Y0164030D01*
X0160113Y0162498D01*
X0159030Y0161415D01*
X0157498Y0161415D01*
X0156415Y0162498D01*
X0156415Y0164030D01*
X0157498Y0165113D01*
X0159030Y0165113D01*
X0160113Y0164030D01*
X0159003Y0163570D01*
X0159003Y0162958D01*
X0158570Y0162525D01*
X0157958Y0162525D01*
X0157525Y0162958D01*
X0157525Y0163570D01*
X0157958Y0164003D01*
X0158570Y0164003D01*
X0159003Y0163570D01*
D17*
X0136800Y0171800D03*
X0126800Y0171800D03*
X0189300Y0166800D03*
X0199300Y0166800D03*
X0224300Y0121800D03*
X0224300Y0111800D03*
X0224300Y0089300D03*
X0224300Y0079300D03*
X0199300Y0031800D03*
X0189300Y0031800D03*
X0081800Y0029300D03*
X0071800Y0029300D03*
D18*
X0140300Y0146757D03*
X0140300Y0153843D03*
D19*
X0088843Y0043800D03*
X0081757Y0043800D03*
D20*
X0069800Y0048800D03*
M02*
