%
M48
M72
T01C0.02400
T02C0.03200
T03C0.04000
T04C0.11811
%
T01
X69800Y48800
T02
X52405Y32795
X52405Y22953
X71800Y29300
X81800Y29300
X52405Y42638
X158264Y35336
X165336Y28264
X189300Y31800
X199300Y31800
X220764Y45764
X227836Y52836
X201800Y54300
X201800Y64300
X201800Y74300
X201800Y84300
X201800Y94300
X201800Y104300
X201800Y114300
X201800Y124300
X201800Y134300
X220764Y150336
X227836Y143264
X224300Y121800
X224300Y111800
X224300Y89300
X224300Y79300
X171800Y74300
X171800Y64300
X171800Y54300
X171800Y84300
X171800Y94300
X171800Y104300
X171800Y114300
X171800Y124300
X171800Y134300
X158264Y163264
X165336Y170336
X189300Y166800
X199300Y166800
X136800Y171800
X126800Y171800
T03
X65800Y59800
X55800Y60800
X75800Y60800
X85800Y59800
X95800Y60800
X105800Y59800
X115800Y60800
X125800Y59800
X121800Y31800
X131800Y31800
X111800Y31800
X101800Y31800
X125800Y149800
X115800Y150800
X105800Y149800
X95800Y150800
X85800Y149800
X75800Y150800
X65800Y149800
X55800Y150800
X59300Y169300
X49300Y169300
X69300Y169300
X79300Y169300
X89300Y169300
X99300Y169300
X109300Y169300
T04
X31800Y28300
X31800Y169800
X223300Y169800
X223300Y28300
M30
